<svg width="375" height="812" viewBox="0 0 375 812" fill="none" xmlns="http://www.w3.org/2000/svg">
<g clip-path="url(#clip0_693_845)">
<rect width="375" height="812" fill="#0BEA52"/>
<rect x="121" y="799" width="134" height="5" rx="2.5" fill="#222222"/>
<path opacity="0.35" d="M338.667 17.8334H355.333C356.53 17.8334 357.5 18.8037 357.5 20.0004V26.0004C357.5 27.1968 356.53 28.1664 355.333 28.1664H338.667C337.47 28.1664 336.5 27.1968 336.5 26.0004V20.0004L336.511 19.7787C336.622 18.686 337.545 17.8334 338.667 17.8334Z" stroke="#222222"/>
<path opacity="0.4" d="M359 21V25C359.805 24.6612 360.328 23.8731 360.328 23C360.328 22.1269 359.805 21.3388 359 21Z" fill="#222222"/>
<path d="M338 20.6667C338 19.9303 338.597 19.3334 339.333 19.3334H354.667C355.403 19.3334 356 19.9303 356 20.6667V25.3334C356 26.0698 355.403 26.6667 354.667 26.6667H339.333C338.597 26.6667 338 26.0698 338 25.3334V20.6667Z" fill="#222222"/>
<path fill-rule="evenodd" clip-rule="evenodd" d="M321.12 25.7313C322.396 24.6524 324.265 24.6524 325.54 25.7313C325.604 25.7893 325.641 25.8714 325.643 25.9578C325.645 26.0443 325.611 26.1277 325.549 26.1883L323.552 28.2039C323.494 28.2631 323.414 28.2967 323.33 28.2967C323.247 28.2967 323.167 28.2631 323.109 28.2039L321.111 26.1883C321.049 26.1277 321.015 26.0442 321.017 25.9578C321.019 25.8714 321.056 25.7892 321.12 25.7313ZM318.455 23.0418C321.204 20.4858 325.459 20.4858 328.207 23.0418C328.269 23.1017 328.305 23.1842 328.306 23.2703C328.307 23.3565 328.273 23.4396 328.212 23.5008L327.058 24.6678C326.939 24.7869 326.746 24.7895 326.624 24.6736C325.722 23.8565 324.548 23.4041 323.33 23.4041C322.114 23.4046 320.94 23.857 320.038 24.6736C319.916 24.7895 319.724 24.7869 319.605 24.6678L318.451 23.5008C318.39 23.4397 318.356 23.3564 318.357 23.2703C318.358 23.1842 318.393 23.1016 318.455 23.0418ZM315.79 20.3602C320.006 16.321 326.656 16.3207 330.87 20.3602C330.931 20.4201 330.966 20.5022 330.966 20.5877C330.967 20.6733 330.933 20.7555 330.872 20.8162L329.716 21.9832C329.597 22.1027 329.404 22.1039 329.284 21.9861C327.678 20.4594 325.546 19.6083 323.33 19.6082C321.114 19.6082 318.982 20.4593 317.376 21.9861C317.256 22.1041 317.063 22.1029 316.944 21.9832L315.787 20.8162C315.727 20.7554 315.693 20.6733 315.694 20.5877C315.694 20.5022 315.729 20.4201 315.79 20.3602Z" fill="#222222"/>
<path d="M295.667 24.3336C296.219 24.3336 296.667 24.7813 296.667 25.3336V27.3336C296.666 27.8858 296.219 28.3336 295.667 28.3336H294.667C294.114 28.3336 293.667 27.8858 293.667 27.3336V25.3336C293.667 24.7813 294.114 24.3336 294.667 24.3336H295.667ZM300.334 22.3336C300.886 22.3338 301.334 22.7814 301.334 23.3336V27.3336C301.333 27.8856 300.886 28.3334 300.334 28.3336H299.334C298.781 28.3336 298.334 27.8858 298.334 27.3336V23.3336C298.334 22.7813 298.781 22.3336 299.334 22.3336H300.334ZM305 19.9996C305.552 19.9996 305.999 20.4475 306 20.9996V27.3336C305.999 27.8858 305.552 28.3336 305 28.3336H304C303.448 28.3334 303 27.8856 303 27.3336V20.9996C303 20.4476 303.448 19.9998 304 19.9996H305ZM309.667 17.6666C310.219 17.6666 310.667 18.1143 310.667 18.6666V27.3336C310.666 27.8858 310.219 28.3336 309.667 28.3336H308.667C308.114 28.3336 307.667 27.8858 307.667 27.3336V18.6666C307.667 18.1143 308.114 17.6666 308.667 17.6666H309.667Z" fill="#222222"/>
<path d="M37.3207 28.2563C40.0087 28.2563 41.6053 26.1543 41.6053 22.5947C41.6053 21.2544 41.349 20.1265 40.8583 19.2549C40.1478 17.8999 38.9247 17.1675 37.3793 17.1675C35.0795 17.1675 33.4535 18.7129 33.4535 20.8809C33.4535 22.917 34.9183 24.3965 36.9325 24.3965C38.1703 24.3965 39.1737 23.8179 39.6718 22.8145H39.6937C39.6937 22.8145 39.723 22.8145 39.7303 22.8145C39.745 22.8145 39.7963 22.8145 39.7963 22.8145C39.7963 25.2314 38.8807 26.6743 37.3353 26.6743C36.4271 26.6743 35.724 26.1763 35.4823 25.3779H33.6C33.9149 27.1138 35.3871 28.2563 37.3207 28.2563ZM37.3866 22.895C36.1708 22.895 35.3065 22.0308 35.3065 20.8223C35.3065 19.6431 36.2147 18.7422 37.3939 18.7422C38.5731 18.7422 39.4813 19.6577 39.4813 20.8516C39.4813 22.0308 38.5951 22.895 37.3866 22.895Z" fill="#222222"/>
<path d="M44.6965 28.1538C45.3923 28.1538 45.8683 27.6558 45.8683 26.9966C45.8683 26.3301 45.3923 25.8394 44.6965 25.8394C44.008 25.8394 43.5246 26.3301 43.5246 26.9966C43.5246 27.6558 44.008 28.1538 44.6965 28.1538ZM44.6965 22.6606C45.3923 22.6606 45.8683 22.1699 45.8683 21.5107C45.8683 20.8442 45.3923 20.3535 44.6965 20.3535C44.008 20.3535 43.5246 20.8442 43.5246 21.5107C43.5246 22.1699 44.008 22.6606 44.6965 22.6606Z" fill="#222222"/>
<path d="M52.7241 28H54.5332V26.0298H55.9614V24.4331H54.5332V17.4312H51.8672C49.9995 20.2437 48.5127 22.5947 47.5605 24.3452V26.0298H52.7241V28ZM49.311 24.3672C50.5415 22.1992 51.6401 20.4634 52.6509 18.9692H52.7534V24.4771H49.311V24.3672Z" fill="#222222"/>
<path d="M59.99 28H61.8797V17.4312H59.9973L57.2361 19.3647V21.1812L59.8655 19.3354H59.99V28Z" fill="#222222"/>
<rect x="24" y="661" width="327" height="56" rx="16" fill="#FFE812"/>
<path d="M123 689C123 682.373 128.373 677 135 677C141.627 677 147 682.373 147 689C147 695.627 141.627 701 135 701C128.373 701 123 695.627 123 689Z" fill="#FFE812"/>
<path d="M135 682.5C130.582 682.5 127 685.324 127 688.808C127 691.06 128.497 693.036 130.75 694.152C130.627 694.575 129.962 696.871 129.936 697.051C129.936 697.051 129.92 697.187 130.008 697.238C130.096 697.29 130.199 697.25 130.199 697.25C130.45 697.215 133.117 695.341 133.579 695.016C134.04 695.081 134.515 695.115 135 695.115C139.418 695.115 143 692.291 143 688.808C143 685.324 139.418 682.5 135 682.5Z" fill="#381F1F"/>
<path d="M167.789 682.238C167.789 687.037 166.471 691.15 160.617 694.068L159.545 692.592C162.296 691.229 163.931 689.647 164.854 687.758L159.914 688.232L159.668 686.545L165.451 686.176C165.653 685.438 165.776 684.655 165.838 683.82H160.494V682.238H167.789ZM171.973 680.674V686.896H174.328V688.496H171.973V696.529H170.021V680.674H171.973ZM182.626 682.238C182.626 687.037 181.307 691.15 175.454 694.068L174.382 692.592C177.133 691.229 178.767 689.647 179.69 687.758L174.751 688.232L174.505 686.545L180.288 686.176C180.49 685.438 180.613 684.655 180.675 683.82H175.331V682.238H182.626ZM186.809 680.674V686.896H189.165V688.496H186.809V696.529H184.858V680.674H186.809ZM196.425 681.57C199.835 681.57 202.349 683.275 202.349 685.859C202.349 688.241 200.301 689.832 197.392 690.113V693.031H203.72V694.631H189.201V693.031H195.458V690.113C192.567 689.832 190.519 688.241 190.537 685.859C190.519 683.275 193.033 681.57 196.425 681.57ZM196.425 683.152C194.105 683.135 192.435 684.189 192.453 685.859C192.435 687.582 194.105 688.602 196.425 688.602C198.781 688.602 200.433 687.582 200.433 685.859C200.433 684.189 198.781 683.135 196.425 683.152ZM222.108 693.102V694.719H207.589V693.102H213.847V690.518H209.311V685.314H218.452V683.346H209.276V681.764H220.386V686.861H211.263V688.918H220.755V690.518H215.78V693.102H222.108ZM235.064 682.221V684.014C235.064 686.141 235.064 688.338 234.484 691.678L232.498 691.502C233.113 688.373 233.113 686.07 233.113 684.014V683.803H223.955V682.221H235.064ZM236.91 692.785V694.385H222.425V692.785H236.91ZM250.498 680.691V692.17H248.53V680.691H250.498ZM250.938 694.666V696.248H239.987V691.01H241.955V694.666H250.938ZM241.832 681.729C244.241 681.729 246.104 683.398 246.104 685.701C246.104 688.057 244.241 689.691 241.832 689.691C239.407 689.691 237.543 688.057 237.543 685.701C237.543 683.398 239.407 681.729 241.832 681.729ZM241.832 683.434C240.479 683.434 239.442 684.33 239.459 685.701C239.442 687.107 240.479 687.986 241.832 687.986C243.151 687.986 244.188 687.107 244.188 685.701C244.188 684.33 243.151 683.434 241.832 683.434Z" fill="#222222"/>
<path d="M118.951 750.605V751.699H107.74V750.605H112.676V748.459H109.107V744.562H116.299V742.84H109.08V741.773H117.584V745.602H110.392V747.393H117.871V748.459H113.961V750.605H118.951ZM128.987 742.156V743.469C128.987 745.055 128.987 746.777 128.536 749.389L127.209 749.266C127.702 746.818 127.702 745.014 127.702 743.469V743.223H120.483V742.156H128.987ZM130.45 750.346V751.426H119.28V750.346H130.45ZM140.977 740.926V749.826H139.679V740.926H140.977ZM141.347 751.85V752.902H132.966V748.924H134.278V751.85H141.347ZM134.333 741.746C136.179 741.746 137.587 743.004 137.587 744.781C137.587 746.586 136.179 747.83 134.333 747.83C132.487 747.83 131.065 746.586 131.065 744.781C131.065 743.004 132.487 741.746 134.333 741.746ZM134.333 742.881C133.184 742.881 132.337 743.66 132.337 744.781C132.337 745.93 133.184 746.695 134.333 746.695C135.454 746.695 136.315 745.93 136.315 744.781C136.315 743.66 135.454 742.881 134.333 742.881ZM152.503 740.912V753.189H151.205V740.912H152.503ZM145.955 741.828C147.773 741.828 149.113 743.496 149.113 746.121C149.113 748.76 147.773 750.428 145.955 750.428C144.109 750.428 142.783 748.76 142.783 746.121C142.783 743.496 144.109 741.828 145.955 741.828ZM145.955 742.99C144.82 742.99 144.041 744.193 144.041 746.121C144.041 748.062 144.82 749.266 145.955 749.266C147.076 749.266 147.855 748.062 147.855 746.121C147.855 744.193 147.076 742.99 145.955 742.99ZM166.942 740.912V747.242H165.629V740.912H166.942ZM166.942 747.803V750.838H160.12V752H167.366V753.039H158.848V749.895H165.657V748.828H158.807V747.803H166.942ZM163.948 741.719V742.744H162.772V745.643C163.367 745.602 163.955 745.547 164.508 745.479L164.563 746.422C162.116 746.791 159.258 746.873 157.112 746.873L156.962 745.834L158.452 745.82V742.744H157.29V741.719H163.948ZM159.696 745.793C160.297 745.772 160.913 745.752 161.528 745.711V742.744H159.696V745.793ZM179.507 750.551V751.631H168.296V750.551H170.976V747.352C169.971 746.798 169.362 745.916 169.362 744.822C169.362 742.895 171.249 741.623 173.874 741.623C176.513 741.623 178.4 742.895 178.4 744.822C178.4 745.902 177.812 746.771 176.827 747.324V750.551H179.507ZM173.874 742.662C171.946 742.662 170.62 743.496 170.62 744.822C170.62 746.135 171.946 746.996 173.874 746.996C175.788 746.996 177.142 746.135 177.142 744.822C177.142 743.496 175.788 742.662 173.874 742.662ZM172.261 750.551H175.515V747.816C175.016 747.946 174.462 748.008 173.874 748.008C173.3 748.008 172.753 747.946 172.261 747.83V750.551ZM189.461 740.926V744.863H191.238V745.943H189.461V750.086H188.162V740.926H189.461ZM187.15 742.348V743.4H179.849V742.348H182.857V740.912H184.156V742.348H187.15ZM183.5 743.988C185.263 743.988 186.467 744.904 186.467 746.299C186.467 747.693 185.263 748.596 183.5 748.596C181.722 748.596 180.519 747.693 180.519 746.299C180.519 744.904 181.722 743.988 183.5 743.988ZM183.5 744.986C182.461 744.986 181.763 745.492 181.777 746.299C181.763 747.092 182.461 747.584 183.5 747.584C184.539 747.584 185.236 747.092 185.25 746.299C185.236 745.492 184.539 744.986 183.5 744.986ZM189.98 751.85V752.902H181.695V749.361H182.994V751.85H189.98ZM198.649 744.029C198.649 746.271 199.907 748.5 201.78 749.348L200.987 750.387C199.593 749.689 198.547 748.302 198.007 746.627C197.467 748.391 196.393 749.881 194.985 750.619L194.165 749.566C196.065 748.664 197.337 746.299 197.337 744.029V741.938H198.649V744.029ZM204.446 740.912V753.189H203.161V746.039H200.427V744.986H203.161V740.912H204.446ZM215.917 740.912V753.189H214.619V740.912H215.917ZM207.755 741.938V745.082H211.05V741.938H212.335V750.25H206.456V741.938H207.755ZM207.755 749.184H211.05V746.107H207.755V749.184ZM223.533 742.648C223.533 744.645 225.666 746.531 228.018 746.955L227.416 748.035C225.461 747.611 223.656 746.326 222.863 744.604C222.057 746.312 220.259 747.598 218.297 748.035L217.723 746.955C220.047 746.518 222.166 744.645 222.166 742.648V741.719H223.533V742.648ZM228.523 750.469V751.549H217.312V750.469H228.523ZM239.01 740.912V747.488H237.711V740.912H239.01ZM232.27 748.076V749.457H237.725V748.076H239.01V753.012H230.999V748.076H232.27ZM232.27 751.945H237.725V750.482H232.27V751.945ZM232.366 741.473C234.239 741.473 235.62 742.635 235.62 744.316C235.62 745.998 234.239 747.16 232.366 747.146C230.493 747.16 229.098 745.998 229.098 744.316C229.098 742.635 230.493 741.473 232.366 741.473ZM232.366 742.566C231.204 742.553 230.37 743.277 230.37 744.316C230.37 745.369 231.204 746.08 232.366 746.08C233.514 746.08 234.348 745.369 234.348 744.316C234.348 743.277 233.514 742.553 232.366 742.566ZM250.564 740.912V753.162H249.265V740.912H250.564ZM242.429 742.102V748.924C244.213 748.91 246.093 748.767 248.062 748.363L248.239 749.457C246.066 749.895 244.097 750.045 242.169 750.045H241.144V742.102H242.429ZM261.474 740.912V745.656H263.443V746.723H261.474V753.189H260.175V740.912H261.474ZM258.179 742.088V743.141H253.75V749.061C255.807 749.054 257.352 748.965 259.095 748.65L259.259 749.744C257.345 750.086 255.718 750.154 253.435 750.141H252.451V742.088H258.179ZM264.865 752.096C264.332 752.096 263.881 751.658 263.895 751.125C263.881 750.592 264.332 750.154 264.865 750.154C265.385 750.154 265.836 750.592 265.836 751.125C265.836 751.658 265.385 752.096 264.865 752.096Z" fill="white"/>
<g filter="url(#filter0_d_693_845)">
<path d="M197.023 158H219.039V184.432C219.039 185.797 218.57 186.949 217.631 187.888C216.692 188.827 215.54 189.296 214.175 189.296H209.247V170.224C209.247 168.603 208.436 167.792 206.815 167.792H197.023V158ZM236.511 189.296H226.719V158H236.511V189.296Z" fill="white"/>
<path d="M190.526 138.128V169.424H180.734V165.52H169.662C168.254 166.757 166.654 167.739 164.862 168.464C163.113 169.147 161.235 169.488 159.23 169.488C157.054 169.488 155.006 169.083 153.086 168.272C151.209 167.419 149.566 166.288 148.158 164.88C146.75 163.472 145.619 161.808 144.766 159.888C143.955 157.968 143.55 155.92 143.55 153.744C143.55 151.568 143.955 149.541 144.766 147.664C145.619 145.744 146.75 144.08 148.158 142.672C149.566 141.264 151.209 140.155 153.086 139.344C155.006 138.491 157.054 138.064 159.23 138.064C161.15 138.064 162.942 138.384 164.606 139.024C166.313 139.664 167.849 140.539 169.214 141.648H180.734V138.128H190.526ZM159.23 158.416C160.51 158.416 161.598 157.968 162.494 157.072C163.433 156.133 163.902 155.024 163.902 153.744C163.902 152.464 163.433 151.376 162.494 150.48C161.598 149.541 160.51 149.072 159.23 149.072C157.95 149.072 156.841 149.541 155.902 150.48C155.006 151.376 154.558 152.464 154.558 153.744C154.558 155.024 155.006 156.133 155.902 157.072C156.841 157.968 157.95 158.416 159.23 158.416ZM180.734 151.44H174.782C174.91 152.208 174.974 152.976 174.974 153.744C174.974 154.085 174.953 154.427 174.91 154.768C174.91 155.067 174.889 155.387 174.846 155.728H180.734V151.44Z" fill="white"/>
<path d="M98.473 158H120.489V184.432C120.489 185.797 120.02 186.949 119.081 187.888C118.142 188.827 116.99 189.296 115.625 189.296H110.697V170.224C110.697 168.603 109.886 167.792 108.265 167.792H98.473V158ZM137.961 189.296H128.169V158H137.961V189.296Z" fill="white"/>
<path d="M91.976 138.128V169.424H82.184V165.52H71.112C69.704 166.757 68.104 167.739 66.312 168.464C64.5627 169.147 62.6853 169.488 60.68 169.488C58.504 169.488 56.456 169.083 54.536 168.272C52.6587 167.419 51.016 166.288 49.608 164.88C48.2 163.472 47.0693 161.808 46.216 159.888C45.4053 157.968 45 155.92 45 153.744C45 151.568 45.4053 149.541 46.216 147.664C47.0693 145.744 48.2 144.08 49.608 142.672C51.016 141.264 52.6587 140.155 54.536 139.344C56.456 138.491 58.504 138.064 60.68 138.064C62.6 138.064 64.392 138.384 66.056 139.024C67.7627 139.664 69.2987 140.539 70.664 141.648H82.184V138.128H91.976ZM60.68 158.416C61.96 158.416 63.048 157.968 63.944 157.072C64.8827 156.133 65.352 155.024 65.352 153.744C65.352 152.464 64.8827 151.376 63.944 150.48C63.048 149.541 61.96 149.072 60.68 149.072C59.4 149.072 58.2907 149.541 57.352 150.48C56.456 151.376 56.008 152.464 56.008 153.744C56.008 155.024 56.456 156.133 57.352 157.072C58.2907 157.968 59.4 158.416 60.68 158.416ZM82.184 151.44H76.232C76.36 152.208 76.424 152.976 76.424 153.744C76.424 154.085 76.4027 154.427 76.36 154.768C76.36 155.067 76.3387 155.387 76.296 155.728H82.184V151.44Z" fill="white"/>
<path d="M283.482 258.808V234.936C283.482 233.528 283.951 232.355 284.89 231.416C285.828 230.477 287.002 230.008 288.41 230.008H289.498L289.562 229.944H293.146C294.81 229.944 295.642 229.133 295.642 227.512V223.288C295.642 221.667 294.81 220.856 293.146 220.856H283.482V211H305.498V239.864H295.77C294.148 239.864 293.338 240.675 293.338 242.296V246.52C293.338 248.184 294.148 249.016 295.77 249.016H305.498V258.808H283.482ZM330.138 248.312H322.906V258.872H313.178V227.512H322.906V238.52H330.138V248.312Z" fill="white"/>
<path d="M249.862 269.064C247.686 269.064 245.638 268.659 243.718 267.848C241.841 266.995 240.198 265.864 238.79 264.456C237.382 263.048 236.252 261.384 235.398 259.464C234.588 257.544 234.182 255.496 234.182 253.32C234.182 251.144 234.588 249.117 235.398 247.24C236.252 245.32 237.382 243.656 238.79 242.248C240.198 240.84 241.841 239.731 243.718 238.92C245.638 238.067 247.686 237.64 249.862 237.64C251.569 237.64 253.212 237.917 254.79 238.472C256.369 238.984 257.82 239.731 259.142 240.712C260.465 241.651 261.596 242.781 262.534 244.104C263.516 245.427 264.262 246.856 264.774 248.392H270.982V237.448H280.774V268.744H270.982V258.184H264.838C264.326 259.763 263.58 261.235 262.598 262.6C261.617 263.923 260.465 265.075 259.142 266.056C257.862 266.995 256.412 267.741 254.79 268.296C253.212 268.808 251.569 269.064 249.862 269.064ZM249.862 248.648C248.582 248.648 247.473 249.117 246.534 250.056C245.638 250.952 245.19 252.04 245.19 253.32C245.19 254.6 245.638 255.709 246.534 256.648C247.473 257.544 248.582 257.992 249.862 257.992C251.142 257.992 252.23 257.544 253.126 256.648C254.065 255.709 254.534 254.6 254.534 253.32C254.534 252.04 254.065 250.952 253.126 250.056C252.23 249.117 251.142 248.648 249.862 248.648Z" fill="white"/>
<path d="M199.536 262.184C200.56 261.245 201.733 260.776 203.056 260.776H209.84V257.384H198V247.592H231.856V257.384H219.632V260.776H231.984V270.568H210.352C209.541 270.568 208.923 270.952 208.496 271.72C208.112 272.531 207.92 273.341 207.92 274.152V275.176H230.512V284.968H207.92V287.208C207.92 288.829 208.731 289.64 210.352 289.64H231.984V299.432H198.128V265.704C198.128 264.381 198.597 263.208 199.536 262.184ZM198.704 242.344V208.296H208.624V215.4H222V208.296H226.992C228.357 208.296 229.531 208.787 230.512 209.768C231.493 210.749 231.984 211.923 231.984 213.288V242.344H198.704ZM222 232.424V225.32H208.624V232.424H222Z" fill="white"/>
</g>
<path d="M103.555 348.819L-175 414.461L-159.688 479.44L118.868 413.798L103.555 348.819Z" fill="#C6C2FF" stroke="black" stroke-width="4" stroke-miterlimit="10"/>
<path d="M195.099 380.366C197.332 376.924 197.503 371.628 196.16 367.816C195.456 365.819 194.296 364.157 192.934 362.567C193.318 361.585 193.851 360.649 194.182 359.645C195.772 354.863 195.11 349.541 192.36 345.311C184.052 332.525 166.952 338.083 154.406 338.285C152.915 332.487 152.135 326.515 150.895 320.66C148.7 310.298 144.488 293.153 134.031 288.222C127.895 285.331 120.093 287.614 118.343 294.587C114.873 308.411 125.456 325.081 120.412 338.768C117 348.031 105.956 344.292 99.5388 349.229L99.2991 349.287C99.2116 349.382 99.1241 349.477 99.0404 349.572C98.8426 350.489 98.3214 351.455 97.7128 352.303C97.6215 352.592 97.5302 352.881 97.4313 353.167C97.1193 354.072 96.8036 354.955 96.3623 355.75C95.9134 357.15 95.5216 358.565 95.2325 360.018C93.2696 369.913 94.1711 381.12 96.6704 390.839C98.854 399.33 102.605 407.722 109.319 413.546C110.145 413.972 110.89 414.535 111.708 414.965C112.218 415.235 112.766 415.459 113.333 415.657C113.789 415.794 114.242 415.92 114.702 416.015C115.033 416.015 115.36 416.045 115.691 416.08C116.452 415.908 117.182 415.764 117.844 415.692C119.914 415.459 123.166 415.714 125.441 415.669C137.942 415.437 150.305 413.736 162.824 413.945C171.049 414.082 186.707 415.935 192.101 408.163C194.285 405.013 194.193 401.418 192.809 397.957C194.566 396.416 196.396 394.91 197.313 392.68C198.85 388.941 197.678 383.436 195.099 380.374V380.366ZM190.967 394.373C190.165 394.917 188.959 395.218 188.552 396.123C187.97 397.409 188.978 398.303 189.412 399.433C190.956 403.435 189.092 407.357 185.06 408.73C178.547 410.948 170.166 410.233 163.403 410.058C149.712 409.704 135.834 411.716 122.01 411.64C116.889 411.61 113.135 412.606 109.353 408.487C98.9225 397.124 94.3423 365.69 102.312 352.429C103.526 350.409 104.149 351.177 106.154 350.953C109.837 350.542 116.829 348.278 119.765 346.023C130.28 337.935 123.516 316.887 122.097 305.912C121.492 301.233 120.458 291.932 127.073 291.095C136.831 289.858 141.723 302.473 144.108 309.921C146.706 318.036 148.951 327.732 150.206 336.162C150.438 337.718 150.343 339.453 150.571 340.826C150.929 342.968 153.227 342.58 154.919 342.511C165.339 342.097 185.524 336.546 190.271 349.705C191.618 353.433 191.333 356.815 189.51 360.288C189.233 360.821 188.734 361.319 188.495 361.859C187.563 363.986 189.13 364.081 190.207 365.291C192.896 368.303 193.866 373.523 192.242 377.247C191.569 378.788 190.275 379.655 191.352 381.393C192.101 382.607 192.645 382.835 193.227 384.406C194.623 388.18 194.562 391.935 190.971 394.373H190.967Z" fill="#030404"/>
<path d="M127.069 291.098C136.827 289.862 141.719 302.477 144.104 309.925C146.702 318.039 148.947 327.736 150.202 336.166C150.434 337.722 150.339 339.457 150.567 340.83C150.925 342.972 153.223 342.584 154.916 342.515C165.335 342.101 185.52 336.55 190.267 349.709C191.614 353.437 191.329 356.819 189.507 360.292C189.229 360.825 188.731 361.323 188.491 361.863C187.559 363.99 189.126 364.085 190.203 365.294C192.892 368.307 193.862 373.527 192.238 377.251C191.565 378.791 190.271 379.659 191.348 381.397C192.097 382.611 192.641 382.839 193.223 384.41C194.619 388.184 194.559 391.939 190.967 394.377C190.165 394.921 188.959 395.222 188.552 396.127C187.97 397.413 188.978 398.307 189.412 399.437C190.956 403.438 189.092 407.361 185.06 408.734C178.547 410.952 170.166 410.236 163.403 410.061C149.712 409.708 135.834 411.72 122.01 411.644C116.889 411.614 113.135 412.61 109.353 408.49C98.9225 397.127 94.3423 365.694 102.312 352.433C103.526 350.413 104.149 351.181 106.154 350.957C109.837 350.546 116.829 348.282 119.765 346.026C130.28 337.939 123.516 316.891 122.097 305.916C121.492 301.236 120.458 291.935 127.073 291.098H127.069Z" fill="white"/>
<path d="M136.758 301.655C136.58 301.895 137.58 305.562 135.503 307.197C132.912 309.236 129.968 307.776 127.727 306.056C126.628 305.212 126.514 303.968 125.122 304.295C123.729 304.622 125.342 306.205 125.86 306.768C128.595 309.731 133.019 311.268 136.45 308.537C137.987 307.312 139.102 304.181 138.543 302.34C138.284 301.491 137.093 301.202 136.755 301.659L136.758 301.655Z" fill="#10140E"/>
<path d="M130.892 296.302C129.9 297.797 132.106 300.689 133.479 299.639C134.818 298.615 133.407 296.01 132.041 295.637C131.714 295.633 131.075 296.025 130.892 296.302Z" fill="#10140E"/>
<path d="M127.811 297.242C123.939 296.782 127.298 303.511 129.116 300.453C129.717 299.441 128.876 297.368 127.811 297.242Z" fill="#10140E"/>
<path d="M178.705 542.566L-58.7812 556.102L-55.6236 611.501L181.862 597.965L178.705 542.566Z" fill="#FFD6A9" stroke="black" stroke-width="3" stroke-miterlimit="10"/>
<path d="M246.076 573.327C248.083 570.569 248.455 566.178 247.507 562.956C247.011 561.268 246.121 559.836 245.061 558.46C245.424 557.66 245.906 556.906 246.225 556.09C247.754 552.192 247.44 547.744 245.344 544.11C239.012 533.132 224.573 536.995 214.151 536.611C213.168 531.731 212.785 526.744 212.012 521.828C210.647 513.129 207.902 498.714 199.441 494.165C194.476 491.493 187.901 493.048 186.142 498.759C182.653 510.08 190.703 524.382 185.917 535.523C182.677 543.062 173.674 539.473 168.131 543.286L167.931 543.323C167.854 543.398 167.78 543.474 167.702 543.546C167.498 544.299 167.022 545.077 166.481 545.755C166.391 545.993 166.304 546.228 166.211 546.459C165.914 547.196 165.611 547.915 165.209 548.556C164.773 549.699 164.385 550.858 164.083 552.047C162.019 560.173 162.272 569.513 163.922 577.689C165.36 584.831 168.107 591.963 173.422 597.093C174.088 597.483 174.684 597.98 175.343 598.373C175.756 598.62 176.199 598.83 176.661 599.017C177.032 599.15 177.404 599.276 177.781 599.371C178.055 599.387 178.327 599.427 178.599 599.468C179.238 599.359 179.848 599.273 180.403 599.239C182.13 599.139 184.818 599.491 186.709 599.556C197.094 599.913 207.433 599.044 217.814 599.769C224.632 600.245 237.55 602.471 242.367 596.255C244.319 593.737 244.4 590.748 243.403 587.814C244.93 586.614 246.514 585.444 247.371 583.631C248.811 580.593 248.08 575.975 246.076 573.32L246.076 573.327ZM242.03 584.772C241.339 585.187 240.326 585.385 239.946 586.117C239.405 587.16 240.204 587.944 240.513 588.9C241.618 592.292 239.9 595.464 236.492 596.425C230.991 597.981 224.062 597.02 218.459 596.577C207.111 595.684 195.503 596.743 184.031 596.069C179.783 595.82 176.622 596.48 173.664 592.893C165.509 583.001 163.087 556.714 170.281 546.054C171.378 544.432 171.86 545.096 173.535 544.999C176.608 544.821 182.513 543.251 185.049 541.504C194.131 535.256 189.444 517.487 188.75 508.316C188.454 504.405 188.004 496.639 193.531 496.236C201.685 495.638 205.19 506.326 206.842 512.611C208.642 519.461 210.082 527.605 210.75 534.66C210.872 535.964 210.719 537.394 210.85 538.546C211.054 540.338 212.98 540.117 214.383 540.136C223.051 540.251 240.047 536.53 243.409 547.661C244.361 550.815 243.979 553.609 242.313 556.411C242.058 556.841 241.621 557.233 241.401 557.672C240.535 559.398 241.83 559.543 242.673 560.594C244.773 563.213 245.348 567.589 243.836 570.609C243.21 571.859 242.097 572.52 242.914 574.011C243.482 575.049 243.925 575.266 244.338 576.594C245.329 579.788 245.116 582.901 242.027 584.765L242.03 584.772Z" fill="#030404"/>
<path d="M193.534 496.243C201.688 495.645 205.196 506.333 206.845 512.618C208.645 519.468 210.085 527.612 210.753 534.667C210.875 535.971 210.722 537.402 210.853 538.553C211.057 540.345 212.983 540.124 214.386 540.143C223.054 540.258 240.051 536.537 243.412 547.668C244.364 550.822 243.982 553.616 242.316 556.418C242.061 556.848 241.624 557.24 241.404 557.679C240.538 559.405 241.834 559.55 242.676 560.601C244.776 563.22 245.351 567.596 243.839 570.616C243.213 571.866 242.1 572.527 242.917 574.018C243.485 575.056 243.928 575.273 244.341 576.601C245.333 579.795 245.119 582.908 242.03 584.772C241.339 585.187 240.326 585.385 239.946 586.117C239.405 587.16 240.204 587.944 240.513 588.9C241.618 592.292 239.9 595.464 236.492 596.425C230.991 597.981 224.062 597.02 218.459 596.577C207.111 595.684 195.503 596.743 184.031 596.069C179.783 595.82 176.622 596.48 173.664 592.893C165.509 583.001 163.087 556.714 170.281 546.054C171.378 544.432 171.86 545.096 173.535 544.999C176.608 544.821 182.513 543.251 185.049 541.504C194.131 535.256 189.444 517.487 188.75 508.316C188.454 504.405 188.004 496.639 193.531 496.236L193.534 496.243Z" fill="white"/>
<path d="M201.112 505.433C200.954 505.626 201.622 508.714 199.827 509.979C197.586 511.558 195.206 510.216 193.425 508.69C192.551 507.94 192.511 506.905 191.341 507.115C190.171 507.324 191.442 508.71 191.845 509.199C193.985 511.779 197.591 513.248 200.556 511.131C201.887 510.179 202.951 507.63 202.565 506.078C202.388 505.362 201.415 505.069 201.112 505.433Z" fill="#10140E"/>
<path d="M196.477 500.73C195.587 501.929 197.291 504.421 198.478 503.611C199.634 502.819 198.578 500.595 197.459 500.227C197.186 500.211 196.643 500.506 196.477 500.73Z" fill="#10140E"/>
<path d="M193.881 501.374C190.687 500.822 193.181 506.555 194.824 504.099C195.368 503.286 194.762 501.526 193.881 501.374Z" fill="#10140E"/>
<path d="M236.131 525.952L502.752 568.933L512.778 506.74L246.157 463.759L236.131 525.952Z" fill="#D4F3FF" stroke="black" stroke-width="3" stroke-miterlimit="10"/>
<path d="M166.514 490.632C164.572 487.282 164.659 482.284 166.107 478.756C166.865 476.909 168.035 475.396 169.395 473.963C169.078 473.019 168.623 472.113 168.356 471.152C167.084 466.572 167.96 461.585 170.751 457.726C179.183 446.067 195.038 452.113 206.852 452.894C208.53 447.499 209.546 441.909 210.991 436.448C213.549 426.782 218.328 410.825 228.413 406.673C234.334 404.238 241.579 406.758 242.897 413.41C245.515 426.604 234.754 441.812 238.864 454.955C241.643 463.844 252.228 460.844 258.044 465.798L258.266 465.863C258.344 465.958 258.422 466.049 258.496 466.144C258.64 467.018 259.085 467.955 259.618 468.782C259.692 469.061 259.763 469.337 259.841 469.609C260.092 470.479 260.349 471.321 260.728 472.095C261.084 473.437 261.387 474.789 261.592 476.168C262.974 485.587 261.597 496.104 258.784 505.146C256.326 513.044 252.394 520.776 245.791 525.949C244.995 526.309 244.263 526.805 243.47 527.173C242.977 527.401 242.448 527.589 241.907 527.749C241.473 527.855 241.036 527.952 240.597 528.02C240.285 528.008 239.975 528.018 239.661 528.035C238.953 527.837 238.271 527.668 237.651 527.569C235.712 527.254 232.634 527.338 230.494 527.192C218.723 526.386 207.152 524.196 195.343 523.805C187.588 523.546 172.739 524.554 168.026 516.974C166.116 513.904 166.373 510.518 167.84 507.322C166.257 505.79 164.603 504.282 163.846 502.134C162.575 498.534 163.936 493.402 166.514 490.639L166.514 490.632ZM169.75 504.03C170.479 504.58 171.603 504.921 171.945 505.792C172.432 507.031 171.443 507.828 170.979 508.872C169.333 512.572 170.906 516.357 174.64 517.841C180.671 520.238 188.608 519.962 194.989 520.116C207.908 520.43 220.894 522.98 233.929 523.558C238.756 523.771 242.248 524.886 246.008 521.181C256.372 510.961 262.173 481.556 255.288 468.679C254.242 466.719 253.617 467.413 251.736 467.108C248.285 466.548 241.803 464.086 239.14 461.82C229.612 453.704 236.981 434.182 238.833 423.909C239.625 419.525 241.039 410.808 234.842 409.709C225.706 408.086 220.497 419.742 217.899 426.648C215.071 434.173 212.495 443.204 210.917 451.095C210.627 452.552 210.632 454.186 210.351 455.474C209.911 457.475 207.766 457.002 206.175 456.856C196.373 455.974 177.613 449.79 172.516 461.97C171.073 465.418 171.181 468.623 172.734 471.978C172.971 472.493 173.419 472.988 173.614 473.507C174.391 475.555 172.913 475.573 171.838 476.658C169.162 479.373 168.001 484.242 169.355 487.833C169.915 489.315 171.094 490.195 170 491.782C169.237 492.888 168.714 493.08 168.091 494.532C166.596 498.022 166.476 501.565 169.75 504.03Z" fill="#030404"/>
<path d="M234.842 409.702C225.706 408.079 220.498 419.735 217.9 426.641C215.071 434.166 212.495 443.197 210.917 451.088C210.627 452.545 210.632 454.179 210.352 455.467C209.911 457.468 207.766 456.995 206.175 456.849C196.374 455.967 177.613 449.783 172.516 461.963C171.073 465.411 171.182 468.616 172.734 471.971C172.972 472.486 173.419 472.981 173.615 473.5C174.392 475.549 172.913 475.566 171.838 476.651C169.162 479.366 168.001 484.235 169.356 487.826C169.915 489.309 171.095 490.188 170.001 491.775C169.237 492.881 168.715 493.073 168.091 494.525C166.597 498.015 166.477 501.558 169.75 504.023C170.479 504.573 171.603 504.914 171.945 505.786C172.432 507.024 171.444 507.821 170.979 508.865C169.334 512.566 170.907 516.35 174.641 517.834C180.672 520.231 188.608 519.955 194.989 520.109C207.908 520.423 220.894 522.973 233.93 523.551C238.757 523.764 242.248 524.879 246.008 521.174C256.372 510.954 262.174 481.549 255.289 468.672C254.242 466.712 253.617 467.406 251.737 467.101C248.286 466.541 241.803 464.079 239.14 461.813C229.612 453.697 236.981 434.175 238.834 423.902C239.626 419.518 241.04 410.801 234.842 409.702Z" fill="white"/>
<path d="M225.212 419.2C225.369 419.435 224.252 422.843 226.134 424.483C228.479 426.526 231.323 425.291 233.515 423.775C234.591 423.031 234.757 421.865 236.052 422.237C237.297 422.595 235.753 424.027 235.24 424.533C232.522 427.197 228.281 428.437 225.176 425.7C223.784 424.471 222.882 421.47 223.497 419.76C223.779 418.97 224.915 418.755 225.212 419.2Z" fill="#10140E"/>
<path d="M230.992 414.428C231.855 415.886 229.641 418.503 228.395 417.45C227.183 416.423 228.633 414.032 229.94 413.747C230.248 413.758 230.83 414.157 230.991 414.431L230.992 414.428Z" fill="#10140E"/>
<path d="M233.852 415.461C237.521 415.209 234.04 421.393 232.468 418.425C231.949 417.442 232.839 415.53 233.852 415.461Z" fill="#10140E"/>
</g>
<defs>
<filter id="filter0_d_693_845" x="41" y="134.064" width="301.138" height="177.368" filterUnits="userSpaceOnUse" color-interpolation-filters="sRGB">
<feFlood flood-opacity="0" result="BackgroundImageFix"/>
<feColorMatrix in="SourceAlpha" type="matrix" values="0 0 0 0 0 0 0 0 0 0 0 0 0 0 0 0 0 0 127 0" result="hardAlpha"/>
<feOffset dx="4" dy="4"/>
<feGaussianBlur stdDeviation="4"/>
<feComposite in2="hardAlpha" operator="out"/>
<feColorMatrix type="matrix" values="0 0 0 0 0 0 0 0 0 0 0 0 0 0 0 0 0 0 0.15 0"/>
<feBlend mode="normal" in2="BackgroundImageFix" result="effect1_dropShadow_693_845"/>
<feBlend mode="normal" in="SourceGraphic" in2="effect1_dropShadow_693_845" result="shape"/>
</filter>
<clipPath id="clip0_693_845">
<rect width="375" height="812" fill="white"/>
</clipPath>
</defs>
</svg>
